<svg
  xmlns="http://www.w3.org/2000/svg"
  viewBox="0 0 24 24"
>
  <path
    d="M17 12H3"
    stroke="currentColor"
    stroke-width="var(--border-width)"
    stroke-linecap="round"
    stroke-linejoin="round"
  />
  <path
    d="M21.715 11.797L16.265 7.90403C16.1455 7.81864 16.0047 7.76781 15.8582 7.75712C15.7117 7.74644 15.565 7.7763 15.4344 7.84344C15.3037 7.91059 15.1941 8.01241 15.1174 8.13775C15.0408 8.2631 15.0002 8.40712 15 8.55403V15.445C15 15.592 15.0405 15.7362 15.117 15.8617C15.1936 15.9871 15.3032 16.0891 15.4339 16.1564C15.5646 16.2236 15.7113 16.2536 15.8579 16.2429C16.0045 16.2323 16.1454 16.1815 16.265 16.096L21.715 12.203C21.7472 12.1799 21.7734 12.1494 21.7915 12.1141C21.8096 12.0788 21.8191 12.0397 21.8191 12C21.8191 11.9604 21.8096 11.9213 21.7915 11.886C21.7734 11.8507 21.7472 11.8202 21.715 11.797Z"
    fill="currentColor"
  />
</svg>