<svg
  xmlns="http://www.w3.org/2000/svg"
  viewBox="0 0 48 48"
  fill="none"
>
  <path
    d="M12.1087 8.4257C16.9125 11.951 22.11 19.0788 24 22.9128C25.89 19.0788 31.0875 11.951 35.8913 8.4257C39.3825 5.87822 45 3.92259 45 10.1755C45 11.4363 44.265 20.6742 43.8187 22.1666C42.3225 27.3902 36.8625 28.7283 32.0063 27.9049C40.5113 29.3201 42.6637 33.9776 37.9912 38.6351C29.1187 47.4869 25.26 36.3964 24.2625 33.5659C24.0788 33.0513 24 32.7939 24 32.9998C24 32.7939 23.9212 33.0513 23.7375 33.5659C22.74 36.3964 18.855 47.4869 10.0088 38.6351C5.33625 33.9776 7.48875 29.2944 15.9937 27.9049C11.1375 28.7026 5.6775 27.3645 4.18125 22.1666C3.735 20.6742 3 11.4106 3 10.1755C3 3.92259 8.6175 5.87822 12.1087 8.4257Z"
    fill="currentColor"
    stroke="var(--stroke)"
    stroke-width="var(--border-width)"
    stroke-linecap="round"
    stroke-linejoin="round"
  />
</svg>