<svg
  xmlns="http://www.w3.org/2000/svg"
  viewBox="0 0 48 48"
  fill="currentColor"
>
  <rect
    x="1"
    y="1"
    width="46"
    height="46"
    rx="10"
    fill="#F7EAA1"
    stroke="var(--stroke)"
    stroke-width="var(--border-width)"
  />
  <path
    d="M24 40C24 38.6076 23.4381 37.2723 22.4379 36.2877C21.4377 35.3031 20.0812 34.75 18.6667 34.75H11.5556C9.87911 34.75 9.04178 34.75 8.52089 34.2373C8 33.7245 8 32.9003 8 31.25V15.5C8 13.8497 8 13.0255 8.52089 12.5128C9.04178 12 9.87911 12 11.5556 12H13.3333C18.3609 12 20.8764 12 22.4373 13.5383C24 15.0748 24 17.551 24 22.5M24 40V22.5M24 40C24 38.6076 24.5619 37.2723 25.5621 36.2877C26.5623 35.3031 27.9188 34.75 29.3333 34.75H36.4444C38.1209 34.75 38.9582 34.75 39.4791 34.2373C40 33.7245 40 32.9003 40 31.25V15.5C40 13.8497 40 13.0255 39.4791 12.5128C38.9582 12 38.1209 12 36.4444 12H34.6667C29.6391 12 27.1236 12 25.5627 13.5383C24 15.0748 24 17.551 24 22.5"
    fill="var(--background-lighter)"
    stroke="var(--stroke)"
    stroke-width="var(--border-width)"
  />
</svg>