<svg
  xmlns="http://www.w3.org/2000/svg"
  viewBox="0 0 48 48"
  fill="currentColor"
>
  <rect
    id="background"
    x="1"
    y="1"
    width="46"
    height="46"
    rx="10"
    fill="#FFB699"
    stroke="var(--stroke)"
    stroke-width="var(--border-width)"
  />
  <path
    d="M8 20.2445C8 18.4525 9.47556 17 11.296 17C11.9088 17.0013 12.5081 16.8341 13.0295 16.5172C13.5509 16.2002 13.972 15.7462 14.2453 15.2062L15.7031 12.3328C15.8987 11.9478 15.9964 11.7552 16.1084 11.589C16.3939 11.1578 16.7724 10.7939 17.217 10.5232C17.6617 10.2525 18.1615 10.0816 18.6809 10.0228C18.8818 10 19.1022 10 19.5396 10H28.4604C28.8978 10 29.1164 10 29.3191 10.0228C29.8385 10.0816 30.3383 10.2525 30.783 10.5232C31.2276 10.7939 31.6061 11.1578 31.8916 11.589C32.0036 11.7552 32.1013 11.9478 32.2969 12.3328L33.7564 15.2062C34.0295 15.7457 34.45 16.1994 34.9708 16.5163C35.4915 16.8332 36.0918 17.0007 36.704 17C38.5244 17 40 18.4525 40 20.2445V28.9998C40 32.5085 40 34.262 39.1822 35.543C38.7565 36.2106 38.1835 36.7752 37.5058 37.195C36.2027 38 34.4213 38 30.8569 38H17.1431C13.5787 38 11.7973 38 10.496 37.195C9.81784 36.7759 9.24424 36.2119 8.81778 35.5448C8 34.262 8 32.5085 8 28.9998V20.2445Z"
    fill="var(--background-lighter)"
    stroke="var(--stroke)"
    stroke-width="var(--border-width)"
  />
  <path
    d="M31 26C31 29.866 27.866 33 24 33C20.134 33 17 29.866 17 26C17 22.134 20.134 19 24 19C27.866 19 31 22.134 31 26Z"
    fill="var(--stroke)"
  />
</svg>