<svg
  xmlns="http://www.w3.org/2000/svg"
  viewBox="0 0 48 48"
  fill="currentColor"
>
  <rect
    x="1"
    y="1"
    width="46"
    height="46"
    rx="10"
    fill="#F9AFCB"
    stroke="var(--stroke)"
    stroke-width="var(--border-width)"
    stroke-linejoin="round"
  />
  <path
    d="M8 17.4375C8 15.3375 8.00216 13.8938 8.14703 12.8109C8.28541 11.7653 8.53622 11.2534 8.88649 10.8969C9.23676 10.5403 9.74487 10.2888 10.7784 10.1488C11.8508 10 13.2757 10 15.3514 10H16.093C17.9676 10 18.5427 10.0219 19.0422 10.2341C19.5438 10.4441 19.9676 10.8378 21.2908 12.1788L22.7114 13.6159L22.8735 13.78C23.9654 14.8847 24.7654 15.6941 25.8011 16.1294C26.8368 16.5647 27.9719 16.5647 29.5135 16.5625H32.6486C34.7243 16.5625 36.1514 16.5647 37.2216 16.7113C38.2551 16.8513 38.7611 17.105 39.1135 17.4594C39.4659 17.8138 39.7146 18.3278 39.853 19.3734C39.9978 20.4584 40 21.9 40 24V30.5625C40 32.6625 39.9978 34.1063 39.853 35.1891C39.7146 36.2347 39.4638 36.7466 39.1135 37.1031C38.7632 37.4597 38.2551 37.7113 37.2216 37.8513C36.1492 37.9978 34.7243 38 32.6486 38H15.3514C13.2757 38 11.8486 37.9978 10.7784 37.8513C9.74487 37.7113 9.23892 37.4575 8.88649 37.1031C8.53405 36.7488 8.28541 36.2347 8.14703 35.1891C8 34.1041 8 32.6625 8 30.5625V17.4375Z"
    fill="var(--background-lighter)"
    stroke="var(--stroke)"
    stroke-width="var(--border-width)"
  />
</svg>