<svg
  xmlns="http://www.w3.org/2000/svg"
  viewBox="0 0 48 48"
  fill="none"
>
  <rect
    x="1"
    y="1"
    width="46"
    height="46"
    rx="23"
    fill="currentColor"
    stroke="var(--stroke)"
    stroke-width="var(--border-width)"
  />

  <path
    d="M29.5989 40.8V36.3288C29.6589 35.5848 29.5557 34.8408 29.2965 34.1376C29.0342 33.4346 28.6251 32.7956 28.0965 32.2632C33.1197 31.7184 38.3997 29.8632 38.3997 21.3576C38.3951 19.1713 37.5334 17.074 35.9997 15.516C36.7325 13.6159 36.6807 11.5026 35.8557 9.64077C35.8557 9.64077 33.9669 9.09597 29.5989 11.9472C25.9288 10.9794 22.0705 10.9794 18.4005 11.9472C14.0325 9.09597 12.1437 9.64317 12.1437 9.64317C11.3199 11.5036 11.2681 13.615 11.9997 15.5136C10.4548 17.0829 9.59227 19.1987 9.59966 21.4008C9.59966 29.8464 14.8797 31.6992 19.9029 32.3064C19.38 32.8341 18.9743 33.4663 18.7125 34.1616C18.4513 34.8516 18.3447 35.5906 18.4005 36.3264V40.8"
    stroke="var(--stroke)"
    stroke-width="var(--border-width)"
    stroke-linecap="round"
    stroke-linejoin="round"
  />

  <path
    d="M18.4 37.685C13.6 39.1994 9.59922 37.685 7.19922 33.0098"
    stroke="var(--stroke)"
    stroke-width="var(--border-width)"
    stroke-linecap="round"
    stroke-linejoin="round"
  />
</svg>