<svg
  xmlns="http://www.w3.org/2000/svg"
  viewBox="0 0 44 44"
  fill="none"
>
  <path
    d="M21.5 41C31.9934 41 40.5 32.4934 40.5 22C40.5 11.5066 31.9934 3 21.5 3C11.0066 3 2.5 11.5066 2.5 22C2.5 32.4934 11.0066 41 21.5 41Z"
    fill="var(--tertiary)"
    stroke="var(--stroke)"
    stroke-width="4"
  />
  <path
    d="M27.8356 22C27.8356 27.4847 26.9996 32.3943 25.6899 35.8852C25.0337 37.6357 24.2813 38.9657 23.5112 39.8347C22.7411 40.7036 22.0596 41 21.5023 41C20.9449 41 20.2609 40.7036 19.4908 39.8347C18.7232 38.9657 17.9708 37.6357 17.3121 35.8852C16.0049 32.3943 15.1689 27.4847 15.1689 22C15.1689 16.5153 16.0049 11.6057 17.3147 8.1148C17.9708 6.36427 18.7232 5.03427 19.4933 4.16533C20.2635 3.2964 20.9449 3 21.5023 3C22.0596 3 22.7436 3.2964 23.5137 4.16533C24.2813 5.03427 25.0337 6.36427 25.6924 8.1148C26.9996 11.6057 27.8356 16.5153 27.8356 22Z"
    fill="var(--tertiary)"
    stroke="var(--stroke)"
    stroke-width="4"
  />
  <path
    d="M2.5 22H40.5H2.5Z"
    fill="var(--tertiary)"
  />
  <path
    d="M2.5 22H40.5"
    stroke="var(--stroke)"
    stroke-width="4"
    stroke-linecap="round"
  />
</svg>