<svg
  xmlns="http://www.w3.org/2000/svg"
  viewBox="0 0 48 48"
  fill="currentColor"
>
  <rect
    x="1"
    y="1"
    width="46"
    height="46"
    rx="10"
    fill="#D4BCEB"
    stroke="var(--stroke)"
    stroke-width="var(--border-width)"
  />
  <path
    id="house-inner"
    d="M10 25.687C10 23.6043 10 22.565 10.444 21.6763C10.886 20.7896 11.708 20.1833 13.35 18.9749L22 12.2254C22.6 11.8169 23.4 11 24 11C24.6 11 25.2 11.6127 26 12.2252L34.65 18.9729C36.292 20.1833 37.114 20.7875 37.556 21.6763C37.998 22.565 38 23.6043 38 25.685V35.8758C38 37.8204 38 38.7916 37.414 39.3958C36.828 40 35.886 40 34 40H14C12.114 40 11.172 40 10.586 39.3958C10 38.7916 10 37.8204 10 35.8758V25.687Z"
    fill="var(--background-lighter)"
    stroke="var(--stroke)"
    stroke-width="var(--border-width)"
  />

  <path
    id="door"
    d="M7 23.0433C7 23.5361 7 23.7844 7.15867 23.8603C7.31733 23.9363 7.51756 23.7862 7.91422 23.4805L21.6804 12.9799C22.7949 12.1295 23.3521 11.7053 24 11.7053C24.6479 11.7053 25.2051 12.1314 26.3196 12.9799L40.0858 23.4805C40.4824 23.7844 40.6827 23.9363 40.8413 23.8603C41 23.7844 41 23.5361 41 23.0433V22.2856C41 21.3963 41 20.9517 40.8073 20.5664C40.6147 20.181 40.2577 19.9068 39.5418 19.3622L32.9307 14.3184L26.3196 9.27461C25.2051 8.42425 24.6479 8 24 8C23.3521 8 22.7949 8.4261 21.6804 9.27461L8.45822 19.3622C7.74233 19.9068 7.38344 20.181 7.19267 20.5664C7.00189 20.9517 7 21.3963 7 22.2856V23.0433ZM24.9444 27.8842H23.0556C22.0536 27.8842 21.0927 28.2746 20.3843 28.9695C19.6758 29.6644 19.2778 30.6068 19.2778 31.5895V38.7221C19.2778 38.8759 19.4043 39 19.5611 39H28.4389C28.514 39 28.5861 38.9707 28.6392 38.9186C28.6924 38.8665 28.7222 38.7958 28.7222 38.7221V31.5895C28.7222 30.6068 28.3242 29.6644 27.6157 28.9695C26.9073 28.2746 25.9464 27.8842 24.9444 27.8842Z"
    fill="var(--stroke)"
    stroke="var(--stroke)"
    stroke-width="var(--border-width)"
  />

  <path
    id="chiminey"
    d="M32 9H30C29.4477 9 29 9.39175 29 9.875V15.125C29 15.6082 29.4477 16 30 16H32C32.5523 16 33 15.6082 33 15.125V9.875C33 9.39175 32.5523 9 32 9Z"
    fill="var(--stroke)"
  />

</svg>