<svg width="1030" height="1030" viewBox="0 0 1030 1030" fill="none" xmlns="http://www.w3.org/2000/svg">
<g id="Group 18">
<rect id="Rectangle 17" width="1030" height="1030" fill="#FEF6E4"/>
<g id="Group 15">
<path id="Union" d="M504.029 56.2607C614.633 50.7029 747.519 74.2888 840.699 171.499L842.893 173.81L842.899 173.816L845.098 176.17L845.104 176.178C937.497 275.973 973.311 415.488 974.473 535.667L974.494 538.502V538.512L974.498 541.383V541.394C974.165 663.718 912.846 782.875 827.693 862.101C784.845 901.967 753.09 922.337 707.102 933.896C661.621 945.328 602.237 948.111 504.555 953.57H504.551L499.682 953.834L499.677 953.835C397.941 959.18 336.008 951.591 289.161 932.04C244.518 913.408 214.049 884.077 176.282 846.319L176.281 846.318L168.615 838.646C128.924 798.911 102.265 740.429 85.875 677.841C69.7221 616.157 63.4197 550.014 64.6465 492.825V492.819L64.7109 490.111V490.106C67.5824 378.612 112.922 258.164 182.475 175.92L182.48 175.913L184.118 173.989L184.124 173.982C221.177 130.727 274.728 102.678 331.996 84.7646C387.515 67.3986 446.902 59.4424 499.008 56.5273L499.015 56.5264L504.021 56.2607H504.029Z" fill="#21005D" stroke="#21005D" stroke-width="5"/>
<mask id="mask0_291_346" style="mask-type:alpha" maskUnits="userSpaceOnUse" x="66" y="62" width="908" height="884">
<path id="Vector" fill-rule="evenodd" clip-rule="evenodd" d="M971.058 536.679C971.686 656.836 910.679 774.448 825.498 852.5C740.317 930.552 701.064 930.69 504.666 941.5C295.327 953.022 255.019 911.625 171.688 829.467C93.8731 752.748 66.0358 602.317 68.999 489C71.8712 379.165 117.612 260.347 187.497 180C260.108 96.5187 398.331 70.7476 504.666 65.4851C615.706 59.9897 748.409 83.6005 840.499 180C934.356 278.25 970.433 417.261 971.058 536.679Z" fill="#8BD3DD" stroke="#21005D" stroke-width="5"/>
</mask>
<g mask="url(#mask0_291_346)">
<path id="Rectangle 5" d="M-325.785 13.5322H1356.56V1154.58H-325.785V13.5322Z" fill="#8BD3DD"/>
<g id="avatar-final-is">
<g id="avatar-final-inkscape 2">
<g clip-path="url(#clip0_291_346)">
<g id="avatar">
<path id="shadow" fill-rule="evenodd" clip-rule="evenodd" d="M430.475 999.291C429.174 999.293 427.878 999.269 426.583 999.219C398.574 998.15 371.249 984.9 328.201 945.95C320.724 939.186 311.278 938.093 300.794 936.879C277.833 934.221 249.897 930.987 226.796 866.353C219.919 836.151 211.284 827.034 201.286 816.477C197.401 812.374 193.309 808.054 189.036 802.195C167.606 772.815 163.956 750.528 164.977 732.286C164.288 720.267 166.002 709.87 167.552 700.472C168.236 696.321 168.888 692.366 169.287 688.551C168.913 686.017 168.256 683.525 167.226 681.054C154.327 650.097 150.829 627.946 152.343 610.916C149.876 579.068 161.726 561.928 172.632 546.151C179.706 535.919 186.383 526.261 188.502 513.535C186.731 489.214 186.023 468.501 186.445 450.442C184.356 348.99 207.832 320.423 264.302 254.083C320.251 188.356 375.474 151.824 496.36 192.108C497.228 192.397 498.205 192.401 499.073 192.114C612.989 154.493 702.275 188.369 758.213 254.083C801.529 298.077 802.49 323.126 803.886 359.504C804.951 387.265 806.269 421.625 826.859 476.039C834.488 496.201 836.266 514.925 835.334 532.731C837.089 554.936 832.87 575.488 828.79 595.364C825.975 609.076 823.226 622.466 822.551 635.852C823.122 643.178 824.462 650.535 826.859 657.972C832.378 675.102 833.566 686.905 832.804 696.23C834.279 710.216 831.303 718.879 828.378 727.395C826.403 733.144 824.452 738.827 823.909 746.033C824.355 750.534 825.284 755.589 826.859 761.396C827.671 767.204 827.896 772.112 827.675 776.392C829.102 793.245 824.435 801.349 819.095 810.622C814.321 818.913 809.009 828.137 807.03 845.383C807.03 909.115 767.696 921.795 738.198 931.305C725.308 935.46 714.295 939.011 709.264 945.95C682.959 982.229 624.538 1001.06 516.856 982.473C516.301 982.377 515.706 982.394 515.157 982.522C506.036 984.654 497.627 986.783 489.766 988.772C466.648 994.623 448.272 999.274 430.475 999.291ZM559.895 788.101C560.499 787.985 561.103 787.865 561.707 787.745C560.742 788.373 560.042 789.341 559.783 790.466C559.818 789.677 559.855 788.889 559.895 788.101ZM562 871.863L562.011 871.984C561.407 873.765 559.696 875.073 557.648 875.073H472.289C470.589 875.073 469.143 874.182 468.342 872.889L468.395 872.681C469.209 873.899 470.619 874.728 472.268 874.728H557.707C559.678 874.728 561.338 873.528 562 871.863ZM479.793 790.355C479.764 791.5 479.725 792.649 479.677 793.802C479.683 792.196 478.795 790.771 477.441 789.99C477.696 790.031 477.95 790.071 478.204 790.111C478.734 790.194 479.264 790.275 479.793 790.355ZM625.643 766.331C617.271 770.373 608.7 773.963 599.99 777.094C608.92 773.982 617.45 770.422 625.643 766.331Z" fill="#21005D" fill-opacity="0.1"/>
<path id="head" d="M556.048 826.739C555.099 816.859 555.797 766.865 555.998 753.819C556.027 751.956 557.23 750.374 559.016 749.845C574.293 745.326 644.601 723.182 677.599 689.385C721.429 644.493 736.169 541.415 737.109 534.544C737.144 534.29 737.153 534.089 737.138 533.834C736.788 527.855 731.586 446.474 705.548 402.865C669.571 342.607 652.393 314.774 584.399 297.393C538.464 285.65 445.766 290.869 424.386 299.913C367.054 324.164 336.104 367.967 318.746 402.865C295.915 448.766 290.78 533.417 290.611 536.29C290.606 536.381 290.607 536.412 290.608 536.502C291.146 596.996 302.406 643.568 346.471 689.385C380.977 725.264 456.004 745.613 472.996 749.862C475.012 750.367 476.352 752.201 476.192 754.273C475.145 767.845 471.308 815.983 468.795 826.116C468.14 828.757 470.176 831.313 472.941 831.313H551.819C554.324 831.313 556.284 829.191 556.048 826.739Z" fill="url(#paint0_linear_291_346)"/>
<g id="eyebrows">
<path id="eyebrows-left" d="M392.242 428.486C408.616 421.768 417.901 421.766 434.24 428.486" stroke="#21005D" stroke-width="4" stroke-linecap="round"/>
<path id="eyebrows-right" d="M595.514 428.486C611.887 421.768 621.173 421.766 637.512 428.486" stroke="#21005D" stroke-width="4" stroke-linecap="round"/>
</g>
<path id="hair" fill-rule="evenodd" clip-rule="evenodd" d="M698.545 914.345C713.804 892.357 793.26 889.158 782.622 798.621C782.585 798.302 782.582 797.951 782.619 797.632C786.819 760.96 806.066 762.226 801.048 726.251C788.864 681.226 818.569 684.944 801.048 630.419C783.793 576.72 825.833 527.518 801.048 461.84C757.09 345.354 808.189 328.052 737.614 256.178C685.941 195.307 603.471 163.919 498.254 198.723C497.384 199.011 496.405 199.006 495.535 198.716C383.899 161.446 332.885 195.294 281.201 256.178C221.299 326.74 201.573 351.183 211.64 484.605C215.401 534.453 149.483 534.173 191.492 639.506C202.2 666.356 169.227 695.684 211.64 756.437C225.747 776.645 237.701 777.885 246.524 818.365C258.074 914.765 318.173 887.555 340.205 908.383C415.521 979.585 433.416 995.809 507.448 977.977C508.02 977.839 508.644 977.819 509.223 977.922C608.707 995.662 674.252 949.352 698.545 914.345ZM556.504 750.936C556.504 750.96 556.505 750.956 556.504 750.979C556.491 751.743 555.417 815.692 556.504 827.008C556.74 829.461 554.781 831.584 552.276 831.584H473.397C470.632 831.584 468.597 829.028 469.251 826.386C472.127 814.79 475.491 753.418 475.62 751.043C475.624 750.968 475.624 750.934 475.623 750.858C475.322 727.413 382.187 715.04 346.927 676.671C314.35 641.222 292.284 598.552 291.104 539.463C291.07 537.759 292.102 536.207 293.655 535.508C311.873 527.318 314.603 519.956 324.661 506.498C342.984 481.982 318.78 451.973 346.927 431.732C373.993 412.269 394.066 334.361 395.567 328.412C395.634 328.146 395.711 327.936 395.834 327.691C397.485 324.426 410.712 300.059 438.927 297.898C463.124 296.044 484.445 309.189 495.199 314.093C496.279 314.585 497.509 314.541 498.581 314.03C514.666 306.379 534.461 297.898 560.333 297.898C580.078 297.898 597.723 304.92 613.686 328.052C628.492 349.507 620.828 405.296 667.878 430.493C700.226 452.386 678.801 497.823 698.545 506.498C718.08 515.08 732.269 510.724 737.45 533.703C737.56 534.188 737.576 534.709 737.503 535.201C728.481 596.011 708.169 641.825 680.289 676.671C646.275 719.182 556.596 727.445 556.504 750.936Z" fill="#7C5850" stroke="#21005D" stroke-width="4" stroke-linejoin="round"/>
<g id="face">
<g id="eyes">
<g id="eyes-close-down">
<path id="eye" d="M629.953 499.285C629.953 501.325 629.605 503.346 628.93 505.232C628.255 507.117 627.264 508.83 626.017 510.273C624.769 511.716 623.287 512.861 621.657 513.642C620.026 514.422 618.278 514.824 616.514 514.824C614.749 514.824 613.001 514.422 611.371 513.642C609.74 512.861 608.258 511.716 607.01 510.273C605.762 508.83 604.773 507.117 604.097 505.232C603.422 503.346 603.074 501.325 603.074 499.285" stroke="#21005D" stroke-width="4" stroke-linecap="round"/>
<path id="eye_2" d="M426.68 499.043C426.68 501.085 426.332 503.105 425.656 504.99C424.981 506.875 423.991 508.589 422.744 510.032C421.495 511.474 420.014 512.619 418.383 513.4C416.753 514.181 415.005 514.583 413.24 514.583C411.475 514.583 409.727 514.181 408.097 513.4C406.467 512.619 404.985 511.474 403.737 510.032C402.489 508.589 401.499 506.875 400.824 504.99C400.149 503.105 399.801 501.085 399.801 499.043" stroke="#21005D" stroke-width="4" stroke-linecap="round"/>
</g>
<g id="eyes-close-up">
<path id="eye_3" d="M629.951 498.623C629.951 496.583 629.603 494.562 628.928 492.676C628.253 490.791 627.262 489.079 626.015 487.636C624.767 486.193 623.285 485.048 621.655 484.267C620.024 483.486 618.276 483.084 616.512 483.084C614.747 483.084 612.999 483.486 611.369 484.267C609.738 485.048 608.257 486.193 607.008 487.636C605.76 489.079 604.771 490.791 604.095 492.676C603.42 494.562 603.072 496.583 603.072 498.623" stroke="#21005D" stroke-width="4" stroke-linecap="round"/>
<path id="eye_4" d="M426.68 498.867C426.68 496.827 426.332 494.806 425.656 492.92C424.981 491.035 423.991 489.322 422.744 487.879C421.495 486.436 420.014 485.291 418.383 484.51C416.753 483.729 415.005 483.328 413.24 483.328C411.475 483.328 409.727 483.729 408.097 484.51C406.467 485.291 404.985 486.436 403.737 487.879C402.489 489.322 401.499 491.035 400.824 492.92C400.149 494.806 399.801 496.827 399.801 498.867" stroke="#21005D" stroke-width="4" stroke-linecap="round"/>
</g>
<g id="eyes-open">
<path id="Ellipse 4" d="M616.512 514.163C623.934 514.163 629.951 507.205 629.951 498.623C629.951 490.041 623.934 483.084 616.512 483.084C609.089 483.084 603.072 490.041 603.072 498.623C603.072 507.205 609.089 514.163 616.512 514.163Z" fill="#21005D" stroke="#21005D" stroke-width="4"/>
<path id="Ellipse 5" d="M413.24 514.406C420.663 514.406 426.68 507.449 426.68 498.867C426.68 490.285 420.663 483.328 413.24 483.328C405.818 483.328 399.801 490.285 399.801 498.867C399.801 507.449 405.818 514.406 413.24 514.406Z" fill="#21005D" stroke="#21005D" stroke-width="4"/>
</g>
</g>
<g id="mouth">
<path id="mouth-smile-close" d="M461.346 640.098C481.409 656.085 502.924 657.737 513.003 657.737C524.343 657.737 544.027 656.121 564.241 640.098" stroke="#21005D" stroke-width="4" stroke-linecap="round" stroke-linejoin="round"/>
<g id="mouth-smile-open">
<g id="Vector_2">
<path id="path28" fill-rule="evenodd" clip-rule="evenodd" d="M574.105 616.697C574.257 616.706 574.407 616.717 574.556 616.729C574.572 616.73 574.587 616.731 574.603 616.733C574.438 616.719 574.273 616.707 574.105 616.697Z" fill="#21005D"/>
<path id="path30" d="M587.03 627.369C586.902 626.365 586.628 625.36 586.202 624.359C585.798 623.411 585.331 622.567 584.806 621.818C583.145 624.216 547.732 634.583 509.829 634.771C478.29 634.927 447.187 630.137 436.41 627.119C434.154 626.487 432.789 625.933 432.496 625.519C432.271 626.13 432.096 626.748 431.969 627.369C428.839 642.696 455.479 660.275 503.64 660.275C552.034 660.275 589.12 643.81 587.03 627.369Z" fill="#21005D"/>
<path id="path32" d="M507.372 624.36C469.284 624.359 440.564 608.428 432.984 624.36C432.802 624.744 432.639 625.13 432.496 625.519C432.789 625.933 434.154 626.487 436.409 627.119C447.187 630.137 478.29 634.927 509.829 634.771C547.732 634.583 583.145 624.216 584.806 621.818C582.522 618.566 579.096 617.101 574.602 616.733L574.555 616.729C574.406 616.717 574.256 616.706 574.104 616.697C573.248 616.642 572.353 616.626 571.422 616.642C571.203 616.646 570.982 616.652 570.76 616.66C570.568 616.666 570.375 616.674 570.181 616.682C556.353 617.322 534.95 624.36 507.372 624.36Z" fill="#FEF6E4"/>
<g id="Mask group">
<mask id="mask1_291_346" style="mask-type:luminance" maskUnits="userSpaceOnUse" x="426" y="612" width="167" height="53">
<g id="Group">
<path id="path19" d="M426.68 612.438H592.152V664.516H426.68V612.438Z" fill="white"/>
<path id="path21" fill-rule="evenodd" clip-rule="evenodd" d="M574.105 616.697C574.257 616.706 574.407 616.717 574.556 616.729C574.572 616.73 574.587 616.731 574.603 616.733C574.438 616.719 574.273 616.707 574.105 616.697Z" fill="black"/>
<path id="path23" d="M587.03 627.369C586.902 626.365 586.628 625.36 586.202 624.359C585.798 623.411 585.331 622.567 584.806 621.818C583.145 624.216 547.732 634.583 509.829 634.771C478.29 634.927 447.187 630.137 436.41 627.119C434.154 626.487 432.789 625.933 432.496 625.519C432.271 626.13 432.096 626.748 431.969 627.369C428.839 642.696 455.479 660.275 503.64 660.275C552.034 660.275 589.12 643.81 587.03 627.369Z" fill="black"/>
<path id="path25" d="M507.372 624.36C469.284 624.359 440.564 608.428 432.984 624.36C432.802 624.744 432.639 625.13 432.496 625.519C432.789 625.933 434.154 626.487 436.409 627.119C447.187 630.137 478.29 634.927 509.829 634.771C547.732 634.583 583.145 624.216 584.806 621.818C582.522 618.566 579.096 617.101 574.602 616.733L574.555 616.729C574.406 616.717 574.256 616.706 574.104 616.697C573.248 616.642 572.353 616.626 571.422 616.642C571.203 616.646 570.982 616.652 570.76 616.66C570.568 616.666 570.375 616.674 570.181 616.682C556.353 617.322 534.95 624.36 507.372 624.36Z" fill="black"/>
</g>
</mask>
<g mask="url(#mask1_291_346)">
<path id="path34" d="M586.532 623.013C587.192 622.059 586.955 620.751 586.001 620.091C585.048 619.431 583.739 619.668 583.079 620.622L586.532 623.013ZM434.027 627.789C434.198 626.947 434.48 626.103 434.881 625.262L431.089 623.457C430.548 624.594 430.155 625.76 429.912 626.948L434.027 627.789ZM509.839 636.871C528.966 636.776 547.44 634.114 561.342 631.177C568.295 629.708 574.13 628.165 578.354 626.829C580.462 626.162 582.2 625.536 583.487 624.986C584.128 624.712 584.696 624.44 585.156 624.175C585.522 623.963 586.136 623.585 586.532 623.013L583.079 620.622C583.268 620.349 583.41 620.333 583.057 620.538C582.798 620.687 582.398 620.884 581.837 621.124C580.722 621.6 579.125 622.18 577.087 622.825C573.02 624.112 567.321 625.622 560.475 627.068C546.779 629.961 528.596 632.578 509.819 632.671L509.839 636.871ZM574.431 618.825C576.983 619.034 578.986 619.614 580.551 620.596C582.086 621.561 583.339 623 584.27 625.183L588.133 623.535C586.907 620.658 585.125 618.51 582.783 617.039C580.471 615.587 577.752 614.884 574.773 614.639L574.431 618.825ZM436.977 625.096C435.884 624.79 435.065 624.519 434.511 624.293C434.232 624.179 434.064 624.094 433.978 624.044C433.841 623.964 434.02 624.035 434.212 624.307L430.781 626.73C431.12 627.209 431.578 627.505 431.851 627.665C432.174 627.854 432.544 628.026 432.924 628.181C433.69 628.494 434.681 628.815 435.844 629.14L436.977 625.096ZM435.844 629.14C446.849 632.222 478.153 637.028 509.839 636.871L509.819 632.671C478.429 632.826 447.527 628.051 436.977 625.096L435.844 629.14ZM574.723 614.635C574.562 614.623 574.401 614.611 574.238 614.601L573.973 618.792C574.112 618.801 574.251 618.811 574.388 618.822L574.723 614.635ZM574.555 616.728L574.89 612.542C572.579 612.357 570.555 614.08 570.369 616.392C570.183 618.703 571.905 620.727 574.217 620.915L574.555 616.728ZM436.778 626.164C437.966 623.666 439.851 622.345 443.16 621.777C446.774 621.157 451.661 621.541 458.097 622.535C470.583 624.464 487.899 628.559 507.372 628.559V620.16C488.759 620.16 472.67 616.288 459.379 614.234C452.927 613.237 446.832 612.625 441.739 613.499C436.34 614.425 431.793 617.087 429.192 622.555L436.778 626.164ZM582.338 626.006C582.62 626.667 582.788 627.297 582.864 627.898L591.196 626.839C591.018 625.432 590.636 624.052 590.065 622.712L582.338 626.006ZM582.864 627.898C583.158 630.211 582.172 633.095 578.75 636.445C575.336 639.785 569.921 643.131 562.674 646.101C548.223 652.023 527.415 656.075 503.64 656.075V664.474C528.26 664.474 550.191 660.294 565.859 653.873C573.671 650.671 580.16 646.818 584.625 642.447C589.081 638.086 591.947 632.746 591.196 626.839L582.864 627.898ZM503.64 656.075C480.009 656.075 462.017 651.753 450.489 645.833C438.556 639.706 435.127 632.896 436.084 628.209L427.854 626.528C425.682 637.168 434.008 646.812 446.652 653.305C459.702 660.007 479.111 664.474 503.64 664.474V656.075ZM429.192 622.555C428.955 623.052 428.743 623.557 428.555 624.069L436.438 626.967C436.536 626.702 436.648 626.434 436.778 626.164L429.192 622.555ZM574.22 620.915C574.233 620.916 574.246 620.917 574.259 620.918L574.945 612.546C574.926 612.545 574.908 612.544 574.89 612.542L574.22 620.915ZM588.243 619.404C585.006 614.794 580.205 612.977 574.945 612.546L574.259 620.918C577.99 621.224 580.039 622.337 581.369 624.231L588.243 619.404ZM569.987 612.487C562.719 612.823 553.425 614.838 543.21 616.623C532.779 618.446 520.808 620.16 507.372 620.16V628.559C521.515 628.559 534.034 626.753 544.656 624.898C555.494 623.004 563.816 621.181 570.375 620.878L569.987 612.487ZM574.941 612.546L574.894 612.543L574.217 620.915L574.263 620.918L574.941 612.546ZM570.619 612.461C570.41 612.469 570.199 612.477 569.987 612.487L570.375 620.878C570.553 620.869 570.727 620.863 570.9 620.857L570.619 612.461ZM590.065 622.712C589.558 621.52 588.954 620.416 588.243 619.404L581.369 624.231C581.711 624.718 582.038 625.302 582.338 626.006L590.065 622.712ZM428.555 624.069C428.258 624.876 428.025 625.697 427.854 626.528L436.084 628.209C436.168 627.799 436.285 627.385 436.438 626.967L428.555 624.069ZM574.37 612.505C573.384 612.443 572.375 612.424 571.347 612.443L571.497 620.842C572.332 620.827 573.112 620.842 573.84 620.888L574.37 612.505ZM571.347 612.443C571.106 612.447 570.863 612.454 570.619 612.461L570.9 620.857C571.102 620.85 571.301 620.845 571.497 620.842L571.347 612.443ZM574.945 612.546C574.754 612.531 574.563 612.517 574.37 612.505L573.84 620.888C573.982 620.897 574.122 620.907 574.259 620.918L574.945 612.546Z" fill="#21005D"/>
</g>
</g>
</g>
<g id="Ellipse 7">
<path id="path42" d="M561.779 651.026C553.279 653.292 534.571 660.278 509.226 660.278C483.881 660.278 467.776 657.317 460.744 654.356C460.744 648.838 483.881 644.766 509.226 644.766C534.571 644.766 567.33 649.545 561.779 651.026Z" fill="#F582AE"/>
<g id="Mask group_2">
<mask id="mask2_291_346" style="mask-type:luminance" maskUnits="userSpaceOnUse" x="456" y="640" width="112" height="25">
<g id="Group_2">
<path id="path37" d="M456.541 640.56H567.416V664.919H456.541V640.56Z" fill="white"/>
<path id="path39" d="M561.779 651.026C553.279 653.292 534.571 660.278 509.226 660.278C483.881 660.278 467.776 657.317 460.744 654.356C460.744 648.838 483.881 644.766 509.226 644.766C534.571 644.766 567.33 649.545 561.779 651.026Z" fill="black"/>
</g>
</mask>
<g mask="url(#mask2_291_346)">
<path id="path44" d="M561.779 651.026C553.279 653.292 534.571 660.278 509.226 660.278C483.881 660.278 467.776 657.317 460.744 654.356C460.744 648.838 483.881 644.766 509.226 644.766C534.571 644.766 567.33 649.545 561.779 651.026Z" stroke="#21005D" stroke-width="4"/>
</g>
</g>
</g>
</g>
</g>
<g id="glasses">
<path id="path49" d="M471.197 496.767C471.197 538.75 437.164 572.783 395.181 572.783C353.198 572.783 319.164 538.75 319.164 496.767C319.164 454.784 353.198 443.849 395.181 443.849C437.164 443.849 471.197 454.784 471.197 496.767ZM699.667 496.767C699.667 538.75 665.633 572.783 623.65 572.783C581.667 572.783 547.634 538.75 547.634 496.767C547.634 454.784 581.667 443.849 623.65 443.849C665.633 443.849 699.667 454.784 699.667 496.767Z" fill="#D9D9D9" fill-opacity="0.34"/>
<path id="path51" d="M471.197 496.767C471.197 538.75 437.164 572.783 395.181 572.783C353.198 572.783 319.164 538.75 319.164 496.767C319.164 454.784 353.198 443.849 395.181 443.849C437.164 443.849 471.197 454.784 471.197 496.767ZM471.197 496.767C471.197 496.767 488.416 490.467 509.416 490.467C530.415 490.467 547.634 496.767 547.634 496.767M547.634 496.767C547.634 538.75 581.667 572.783 623.65 572.783C665.633 572.783 699.667 538.75 699.667 496.767C699.667 454.784 665.633 443.849 623.65 443.849C581.667 443.849 547.634 454.784 547.634 496.767Z" stroke="#21005D" stroke-width="4"/>
</g>
<path id="nose" d="M526.636 573.203C513.536 579.922 506.108 579.924 493.037 573.203" stroke="#21005D" stroke-width="4" stroke-linecap="round"/>
</g>
<g id="body" filter="url(#filter0_d_291_346)">
<path d="M512.833 1023.16C605.053 1023.16 710.834 1051.23 749.236 980.074C772.953 936.127 754.76 903.913 725.03 858.019C702.706 823.556 585.11 795.755 560.958 790.359C558.574 789.826 556.263 791.739 555.162 794.188C552.043 801.125 542.432 813.016 513.313 811.665C486.601 811.665 477.59 800.751 474.588 794.209C473.464 791.76 471.148 789.817 468.752 790.339C444.636 795.592 328.144 822.602 309.447 858.019C284.383 905.492 254.9 934.925 276.931 980.074C312.214 1052.38 420.61 1023.16 512.838 1023.16H512.833Z" fill="#F582AE"/>
<path d="M512.833 1023.16C605.053 1023.16 710.834 1051.23 749.236 980.074C772.953 936.127 754.76 903.913 725.03 858.019C702.706 823.556 585.11 795.755 560.958 790.359C558.574 789.826 556.263 791.739 555.162 794.188C552.043 801.125 542.432 813.016 513.313 811.665C486.601 811.665 477.59 800.751 474.588 794.209C473.464 791.76 471.148 789.817 468.752 790.339C444.636 795.592 328.144 822.602 309.447 858.019C284.383 905.492 254.9 934.925 276.931 980.074C312.214 1052.38 420.61 1023.16 512.838 1023.16H512.833Z" stroke="#21005D" stroke-width="4"/>
</g>
</g>
</g>
</g>
</g>
</g>
</g>
</g>
<defs>
<filter id="filter0_d_291_346" x="267.191" y="788.252" width="494.934" height="253.748" filterUnits="userSpaceOnUse" color-interpolation-filters="sRGB">
<feFlood flood-opacity="0" result="BackgroundImageFix"/>
<feColorMatrix in="SourceAlpha" type="matrix" values="0 0 0 0 0 0 0 0 0 0 0 0 0 0 0 0 0 0 127 0" result="hardAlpha"/>
<feOffset dy="11"/>
<feComposite in2="hardAlpha" operator="out"/>
<feColorMatrix type="matrix" values="0 0 0 0 0.129412 0 0 0 0 0 0 0 0 0 0.364706 0 0 0 1 0"/>
<feBlend mode="normal" in2="BackgroundImageFix" result="effect1_dropShadow_291_346"/>
<feBlend mode="normal" in="SourceGraphic" in2="effect1_dropShadow_291_346" result="shape"/>
</filter>
<linearGradient id="paint0_linear_291_346" x1="513.876" y1="290.598" x2="513.876" y2="831.313" gradientUnits="userSpaceOnUse">
<stop offset="0.798077" stop-color="#F3D2C1"/>
<stop offset="1" stop-color="#EEC1AA"/>
</linearGradient>
<clipPath id="clip0_291_346">
<rect x="50.998" y="142" width="887" height="887" rx="100" fill="white"/>
</clipPath>
</defs>
</svg>
