<svg xmlns="http://www.w3.org/2000/svg">
    <symbol
        viewBox="0 0 44 44"
        fill="none"
        id="globe"
    >
        <!-- Icon from Lets Icons by Leonid Tsvetkov - https://creativecommons.org/licenses/by/4.0/ -->
        <path
            d="M21.5 41C31.9934 41 40.5 32.4934 40.5 22C40.5 11.5066 31.9934 3 21.5 3C11.0066 3 2.5 11.5066 2.5 22C2.5 32.4934 11.0066 41 21.5 41Z"
            fill="var(--tertiary)"
            stroke="var(--stroke)"
            stroke-width="4"
        />
        <path
            d="M27.8356 22C27.8356 27.4847 26.9996 32.3943 25.6899 35.8852C25.0337 37.6357 24.2813 38.9657 23.5112 39.8347C22.7411 40.7036 22.0596 41 21.5023 41C20.9449 41 20.2609 40.7036 19.4908 39.8347C18.7232 38.9657 17.9708 37.6357 17.3121 35.8852C16.0049 32.3943 15.1689 27.4847 15.1689 22C15.1689 16.5153 16.0049 11.6057 17.3147 8.1148C17.9708 6.36427 18.7232 5.03427 19.4933 4.16533C20.2635 3.2964 20.9449 3 21.5023 3C22.0596 3 22.7436 3.2964 23.5137 4.16533C24.2813 5.03427 25.0337 6.36427 25.6924 8.1148C26.9996 11.6057 27.8356 16.5153 27.8356 22Z"
            fill="var(--tertiary)"
            stroke="var(--stroke)"
            stroke-width="4"
        />
        <path
            d="M2.5 22H40.5H2.5Z"
            fill="var(--tertiary)"
        />
        <path
            d="M2.5 22H40.5"
            stroke="var(--stroke)"
            stroke-width="4"
            stroke-linecap="round"
        />
    </symbol>

    <symbol
        viewBox="0 0 30 26"
        fill="none"
        id="arrow-down"
    >
        <!-- Icon from Lets Icons by Leonid Tsvetkov - https://creativecommons.org/licenses/by/4.0/ -->
        <path
            d="M13.1577 22.078L3.13982 7.76087C1.73338 5.756 3.1679 3.00146 5.61566 3.00146H24.2428C26.6905 3.00146 28.1251 5.756 26.7208 7.76087L16.6986 22.078C16.4994 22.3623 16.2345 22.5945 15.9265 22.7548C15.6185 22.9151 15.2764 22.9987 14.9292 22.9987C14.582 22.9987 14.2399 22.9151 13.9319 22.7548C13.6239 22.5945 13.3569 22.3623 13.1577 22.078Z"
            fill="var(--tertiary)"
            stroke="var(--stroke)"
            stroke-width="4"
        />
    </symbol>

    <symbol
        id="sun"
        viewBox="0 0 24 24"
    >
        <!-- Icon from Lets Icons by Leonid Tsvetkov - https://creativecommons.org/licenses/by/4.0/ -->
        <path
            fill="currentColor"
            stroke-linecap="round"
            stroke-linejoin="round"
            stroke="var(--stroke)"
            stroke-width="var(--border-width)"
            d="M12 3v1m0 16v1m9-9h-1M4 12H3m15.364 6.364l-.707-.707M6.343 6.343l-.707-.707m12.728 0l-.707.707M6.343 17.657l-.707.707M16 12a4 4 0 11-8 0 4 4 0 018 0z"
        ></path>
    </symbol>

    <symbol
        id="moon"
        fill="currentColor"
        viewBox="0 0 24 24"
    >
        <path
            stroke-linecap="round"
            stroke-linejoin="round"
            stroke="var(--stroke)"
            stroke-width="var(--border-width)"
            d="M20.354 15.354A9 9 0 018.646 3.646 9.003 9.003 0 0012 21a9.003 9.003 0 008.354-5.646z"
        ></path>
    </symbol>
    <symbol
        id="home"
        viewBox="0 0 48 48"
        fill="currentColor"
    >
        <!-- Icon from Lets Icons by Leonid Tsvetkov - https://creativecommons.org/licenses/by/4.0/ -->
        <rect
            x="1"
            y="1"
            width="46"
            height="46"
            rx="10"
            fill="#D4BCEB"
            stroke="var(--stroke)"
            stroke-width="var(--border-width)"
        />
        <path
            id="house-inner"
            d="M10 25.687C10 23.6043 10 22.565 10.444 21.6763C10.886 20.7896 11.708 20.1833 13.35 18.9749L22 12.2254C22.6 11.8169 23.4 11 24 11C24.6 11 25.2 11.6127 26 12.2252L34.65 18.9729C36.292 20.1833 37.114 20.7875 37.556 21.6763C37.998 22.565 38 23.6043 38 25.685V35.8758C38 37.8204 38 38.7916 37.414 39.3958C36.828 40 35.886 40 34 40H14C12.114 40 11.172 40 10.586 39.3958C10 38.7916 10 37.8204 10 35.8758V25.687Z"
            fill="var(--background-lighter)"
            stroke="var(--stroke)"
            stroke-width="var(--border-width)"
        />

        <path
            id="door"
            d="M7 23.0433C7 23.5361 7 23.7844 7.15867 23.8603C7.31733 23.9363 7.51756 23.7862 7.91422 23.4805L21.6804 12.9799C22.7949 12.1295 23.3521 11.7053 24 11.7053C24.6479 11.7053 25.2051 12.1314 26.3196 12.9799L40.0858 23.4805C40.4824 23.7844 40.6827 23.9363 40.8413 23.8603C41 23.7844 41 23.5361 41 23.0433V22.2856C41 21.3963 41 20.9517 40.8073 20.5664C40.6147 20.181 40.2577 19.9068 39.5418 19.3622L32.9307 14.3184L26.3196 9.27461C25.2051 8.42425 24.6479 8 24 8C23.3521 8 22.7949 8.4261 21.6804 9.27461L8.45822 19.3622C7.74233 19.9068 7.38344 20.181 7.19267 20.5664C7.00189 20.9517 7 21.3963 7 22.2856V23.0433ZM24.9444 27.8842H23.0556C22.0536 27.8842 21.0927 28.2746 20.3843 28.9695C19.6758 29.6644 19.2778 30.6068 19.2778 31.5895V38.7221C19.2778 38.8759 19.4043 39 19.5611 39H28.4389C28.514 39 28.5861 38.9707 28.6392 38.9186C28.6924 38.8665 28.7222 38.7958 28.7222 38.7221V31.5895C28.7222 30.6068 28.3242 29.6644 27.6157 28.9695C26.9073 28.2746 25.9464 27.8842 24.9444 27.8842Z"
            fill="var(--stroke)"
            stroke="var(--stroke)"
            stroke-width="var(--border-width)"
        />

        <path
            id="chiminey"
            d="M32 9H30C29.4477 9 29 9.39175 29 9.875V15.125C29 15.6082 29.4477 16 30 16H32C32.5523 16 33 15.6082 33 15.125V9.875C33 9.39175 32.5523 9 32 9Z"
            fill="var(--stroke)"
        />

    </symbol>

    <symbol
        id="camera"
        viewBox="0 0 48 48"
        fill="currentColor"
    >
        <!-- Icon from Lets Icons by Leonid Tsvetkov - https://creativecommons.org/licenses/by/4.0/ -->

        <rect
            id="background"
            x="1"
            y="1"
            width="46"
            height="46"
            rx="10"
            fill="#FFB699"
            stroke="var(--stroke)"
            stroke-width="var(--border-width)"
        />
        <path
            d="M8 20.2445C8 18.4525 9.47556 17 11.296 17C11.9088 17.0013 12.5081 16.8341 13.0295 16.5172C13.5509 16.2002 13.972 15.7462 14.2453 15.2062L15.7031 12.3328C15.8987 11.9478 15.9964 11.7552 16.1084 11.589C16.3939 11.1578 16.7724 10.7939 17.217 10.5232C17.6617 10.2525 18.1615 10.0816 18.6809 10.0228C18.8818 10 19.1022 10 19.5396 10H28.4604C28.8978 10 29.1164 10 29.3191 10.0228C29.8385 10.0816 30.3383 10.2525 30.783 10.5232C31.2276 10.7939 31.6061 11.1578 31.8916 11.589C32.0036 11.7552 32.1013 11.9478 32.2969 12.3328L33.7564 15.2062C34.0295 15.7457 34.45 16.1994 34.9708 16.5163C35.4915 16.8332 36.0918 17.0007 36.704 17C38.5244 17 40 18.4525 40 20.2445V28.9998C40 32.5085 40 34.262 39.1822 35.543C38.7565 36.2106 38.1835 36.7752 37.5058 37.195C36.2027 38 34.4213 38 30.8569 38H17.1431C13.5787 38 11.7973 38 10.496 37.195C9.81784 36.7759 9.24424 36.2119 8.81778 35.5448C8 34.262 8 32.5085 8 28.9998V20.2445Z"
            fill="var(--background-lighter)"
            stroke="var(--stroke)"
            stroke-width="var(--border-width)"
        />
        <path
            d="M31 26C31 29.866 27.866 33 24 33C20.134 33 17 29.866 17 26C17 22.134 20.134 19 24 19C27.866 19 31 22.134 31 26Z"
            fill="var(--stroke)"
        />
    </symbol>
    <symbol
        id="book"
        viewBox="0 0 48 48"
        fill="currentColor"
    >
        <!-- Icon from Lets Icons by Leonid Tsvetkov - https://creativecommons.org/licenses/by/4.0/ -->
        <rect
            x="1"
            y="1"
            width="46"
            height="46"
            rx="10"
            fill="#F7EAA1"
            stroke="var(--stroke)"
            stroke-width="var(--border-width)"
        />
        <path
            d="M24 40C24 38.6076 23.4381 37.2723 22.4379 36.2877C21.4377 35.3031 20.0812 34.75 18.6667 34.75H11.5556C9.87911 34.75 9.04178 34.75 8.52089 34.2373C8 33.7245 8 32.9003 8 31.25V15.5C8 13.8497 8 13.0255 8.52089 12.5128C9.04178 12 9.87911 12 11.5556 12H13.3333C18.3609 12 20.8764 12 22.4373 13.5383C24 15.0748 24 17.551 24 22.5M24 40V22.5M24 40C24 38.6076 24.5619 37.2723 25.5621 36.2877C26.5623 35.3031 27.9188 34.75 29.3333 34.75H36.4444C38.1209 34.75 38.9582 34.75 39.4791 34.2373C40 33.7245 40 32.9003 40 31.25V15.5C40 13.8497 40 13.0255 39.4791 12.5128C38.9582 12 38.1209 12 36.4444 12H34.6667C29.6391 12 27.1236 12 25.5627 13.5383C24 15.0748 24 17.551 24 22.5"
            fill="var(--background-lighter)"
            stroke="var(--stroke)"
            stroke-width="var(--border-width)"
        />
    </symbol>

    <symbol
        id="user"
        viewBox="0 0 48 48"
        fill="currentColor"
    >
        <rect
            x="1"
            y="1"
            width="46"
            height="46"
            rx="10"
            fill="#C3F0CA"
            stroke="var(--stroke)"
            stroke-width="var(--border-width)"
        />
        <path
            d="M24 40C32.8366 40 40 32.8366 40 24C40 15.1634 32.8366 8 24 8C15.1634 8 8 15.1634 8 24C8 32.8366 15.1634 40 24 40Z"
            fill="var(--background-lighter)"
            stroke="var(--stroke)"
            stroke-width="var(--border-width)"
            stroke-linecap="round"
        />
        <path
            d="M21 26C21.3046 26.6082 21.7421 27.1132 22.2687 27.4642C22.7952 27.8152 23.3923 28 24 28C24.6077 28 25.2048 27.8152 25.7313 27.4642C26.2579 27.1132 26.6954 26.6082 27 26"
            stroke="var(--stroke)"
            stroke-width="var(--border-width)"
            stroke-linecap="round"
            fill="none"
        />
        <path
            d="M19 19.5C19 18.6716 18.3284 18 17.5 18C16.6716 18 16 18.6716 16 19.5C16 20.3284 16.4477 21 17 21H18C18.5523 21 19 20.3284 19 19.5Z"
            fill="var(--stroke)"
        />
        <path
            d="M32 19.5C32 18.6716 31.3284 18 30.5 18C29.6716 18 29 18.6716 29 19.5C29 20.3284 29.4477 21 30 21H31C31.5523 21 32 20.3284 32 19.5Z"
            fill="var(--stroke)"
        />
    </symbol>

    <symbol
        id="folder"
        viewBox="0 0 48 48"
        fill="currentColor"
    >
        <rect
            x="1"
            y="1"
            width="46"
            height="46"
            rx="10"
            fill="#F9AFCB"
            stroke="var(--stroke)"
            stroke-width="var(--border-width)"
            stroke-linejoin="round"
        />
        <path
            d="M8 17.4375C8 15.3375 8.00216 13.8938 8.14703 12.8109C8.28541 11.7653 8.53622 11.2534 8.88649 10.8969C9.23676 10.5403 9.74487 10.2888 10.7784 10.1488C11.8508 10 13.2757 10 15.3514 10H16.093C17.9676 10 18.5427 10.0219 19.0422 10.2341C19.5438 10.4441 19.9676 10.8378 21.2908 12.1788L22.7114 13.6159L22.8735 13.78C23.9654 14.8847 24.7654 15.6941 25.8011 16.1294C26.8368 16.5647 27.9719 16.5647 29.5135 16.5625H32.6486C34.7243 16.5625 36.1514 16.5647 37.2216 16.7113C38.2551 16.8513 38.7611 17.105 39.1135 17.4594C39.4659 17.8138 39.7146 18.3278 39.853 19.3734C39.9978 20.4584 40 21.9 40 24V30.5625C40 32.6625 39.9978 34.1063 39.853 35.1891C39.7146 36.2347 39.4638 36.7466 39.1135 37.1031C38.7632 37.4597 38.2551 37.7113 37.2216 37.8513C36.1492 37.9978 34.7243 38 32.6486 38H15.3514C13.2757 38 11.8486 37.9978 10.7784 37.8513C9.74487 37.7113 9.23892 37.4575 8.88649 37.1031C8.53405 36.7488 8.28541 36.2347 8.14703 35.1891C8 34.1041 8 32.6625 8 30.5625V17.4375Z"
            fill="var(--background-lighter)"
            stroke="var(--stroke)"
            stroke-width="var(--border-width)"
        />
    </symbol>

    <symbol
        id="arrow-right"
        viewBox="0 0 24 24"
    >
        <path
            d="M17 12H3"
            stroke="currentColor"
            stroke-width="var(--border-width)"
            stroke-linecap="round"
            stroke-linejoin="round"
        />
        <path
            d="M21.715 11.797L16.265 7.90403C16.1455 7.81864 16.0047 7.76781 15.8582 7.75712C15.7117 7.74644 15.565 7.7763 15.4344 7.84344C15.3037 7.91059 15.1941 8.01241 15.1174 8.13775C15.0408 8.2631 15.0002 8.40712 15 8.55403V15.445C15 15.592 15.0405 15.7362 15.117 15.8617C15.1936 15.9871 15.3032 16.0891 15.4339 16.1564C15.5646 16.2236 15.7113 16.2536 15.8579 16.2429C16.0045 16.2323 16.1454 16.1815 16.265 16.096L21.715 12.203C21.7472 12.1799 21.7734 12.1494 21.7915 12.1141C21.8096 12.0788 21.8191 12.0397 21.8191 12C21.8191 11.9604 21.8096 11.9213 21.7915 11.886C21.7734 11.8507 21.7472 11.8202 21.715 11.797Z"
            fill="currentColor"
        />
    </symbol>

    <symbol
        id="email"
        viewBox="0 0 48 48"
        fill="none"
    >
        <rect
            x="1"
            y="7"
            width="46"
            height="34"
            rx="7"
            fill="currentColor"
            stroke="var(--stroke)"
            stroke-width="var(--border-width)"
            stroke-linecap="round"
        />
        <path
            d="M11 16L23.9167 25.0417L36.8333 16"
            stroke="var(--stroke)"
            stroke-width="var(--border-width)"
            stroke-linecap="round"
            stroke-linejoin="round"
        />
    </symbol>

    <symbol
        id="linkedin"
        viewBox="0 0 48 48"
        fill="none"
    >
        <rect
            x="1"
            y="1"
            width="46"
            height="46"
            rx="9"
            fill="currentColor"
            stroke="var(--stroke)"
            stroke-width="var(--border-width)"
            stroke-linecap="round"
        />

        <path
            d="M12 36.6207V19"
            stroke="var(--stroke)"
            stroke-width="var(--border-width)"
            stroke-linecap="round"
            stroke-linejoin="round"
        />
        <path
            d="M21 37V28.6429M21 28.6429V19M21 28.6429C21 19 36 19 36 28.6429V37"
            stroke="var(--stroke)"
            stroke-width="var(--border-width)"
            stroke-linecap="round"
            stroke-linejoin="round"
        />
        <circle
            cx="1"
            cy="1"
            r="1"
            transform="matrix(-1 0 0 1 13 10)"
            fill="var(--stroke)"
        />
    </symbol>

    <symbol
        id="github"
        viewBox="0 0 48 48"
        fill="none"
    >
        <rect
            x="1"
            y="1"
            width="46"
            height="46"
            rx="23"
            fill="currentColor"
            stroke="var(--stroke)"
            stroke-width="var(--border-width)"
        />

        <path
            d="M29.5989 40.8V36.3288C29.6589 35.5848 29.5557 34.8408 29.2965 34.1376C29.0342 33.4346 28.6251 32.7956 28.0965 32.2632C33.1197 31.7184 38.3997 29.8632 38.3997 21.3576C38.3951 19.1713 37.5334 17.074 35.9997 15.516C36.7325 13.6159 36.6807 11.5026 35.8557 9.64077C35.8557 9.64077 33.9669 9.09597 29.5989 11.9472C25.9288 10.9794 22.0705 10.9794 18.4005 11.9472C14.0325 9.09597 12.1437 9.64317 12.1437 9.64317C11.3199 11.5036 11.2681 13.615 11.9997 15.5136C10.4548 17.0829 9.59227 19.1987 9.59966 21.4008C9.59966 29.8464 14.8797 31.6992 19.9029 32.3064C19.38 32.8341 18.9743 33.4663 18.7125 34.1616C18.4513 34.8516 18.3447 35.5906 18.4005 36.3264V40.8"
            stroke="var(--stroke)"
            stroke-width="var(--border-width)"
            stroke-linecap="round"
            stroke-linejoin="round"
        />

        <path
            d="M18.4 37.685C13.6 39.1994 9.59922 37.685 7.19922 33.0098"
            stroke="var(--stroke)"
            stroke-width="var(--border-width)"
            stroke-linecap="round"
            stroke-linejoin="round"
        />
    </symbol>

    <symbol
        id="bluesky"
        viewBox="0 0 48 48"
        fill="none"
    >
        <path
            d="M12.1087 8.4257C16.9125 11.951 22.11 19.0788 24 22.9128C25.89 19.0788 31.0875 11.951 35.8913 8.4257C39.3825 5.87822 45 3.92259 45 10.1755C45 11.4363 44.265 20.6742 43.8187 22.1666C42.3225 27.3902 36.8625 28.7283 32.0063 27.9049C40.5113 29.3201 42.6637 33.9776 37.9912 38.6351C29.1187 47.4869 25.26 36.3964 24.2625 33.5659C24.0788 33.0513 24 32.7939 24 32.9998C24 32.7939 23.9212 33.0513 23.7375 33.5659C22.74 36.3964 18.855 47.4869 10.0088 38.6351C5.33625 33.9776 7.48875 29.2944 15.9937 27.9049C11.1375 28.7026 5.6775 27.3645 4.18125 22.1666C3.735 20.6742 3 11.4106 3 10.1755C3 3.92259 8.6175 5.87822 12.1087 8.4257Z"
            fill="currentColor"
            stroke="var(--stroke)"
            stroke-width="var(--border-width)"
            stroke-linecap="round"
            stroke-linejoin="round"
        />
    </symbol>

    <symbol
        id="calendar"
        fill="none"
        viewBox="0 0 24 24"
        stroke-width="1.5"
        stroke="currentColor"
    >
        <path
            stroke-linecap="round"
            stroke-linejoin="round"
            d="M6.75 3v2.25M17.25 3v2.25M3 18.75V7.5a2.25 2.25 0 0 1 2.25-2.25h13.5A2.25 2.25 0 0 1 21 7.5v11.25m-18 0A2.25 2.25 0 0 0 5.25 21h13.5A2.25 2.25 0 0 0 21 18.75m-18 0v-7.5A2.25 2.25 0 0 1 5.25 9h13.5A2.25 2.25 0 0 1 21 11.25v7.5m-9-6h.008v.008H12v-.008ZM12 15h.008v.008H12V15Zm0 2.25h.008v.008H12v-.008ZM9.75 15h.008v.008H9.75V15Zm0 2.25h.008v.008H9.75v-.008ZM7.5 15h.008v.008H7.5V15Zm0 2.25h.008v.008H7.5v-.008Zm6.75-4.5h.008v.008h-.008v-.008Zm0 2.25h.008v.008h-.008V15Zm0 2.25h.008v.008h-.008v-.008Zm2.25-4.5h.008v.008H16.5v-.008Zm0 2.25h.008v.008H16.5V15Z"
        />
    </symbol>

    <symbol
        id="grid"
        fill="none"
        viewBox="0 0 24 24"
        stroke-width="1.5"
        stroke="currentColor"
    >
        <path
            stroke-linecap="round"
            stroke-linejoin="round"
            d="M3.75 6A2.25 2.25 0 0 1 6 3.75h2.25A2.25 2.25 0 0 1 10.5 6v2.25a2.25 2.25 0 0 1-2.25 2.25H6a2.25 2.25 0 0 1-2.25-2.25V6ZM3.75 15.75A2.25 2.25 0 0 1 6 13.5h2.25a2.25 2.25 0 0 1 2.25 2.25V18a2.25 2.25 0 0 1-2.25 2.25H6A2.25 2.25 0 0 1 3.75 18v-2.25ZM13.5 6a2.25 2.25 0 0 1 2.25-2.25H18A2.25 2.25 0 0 1 20.25 6v2.25A2.25 2.25 0 0 1 18 10.5h-2.25a2.25 2.25 0 0 1-2.25-2.25V6ZM13.5 15.75a2.25 2.25 0 0 1 2.25-2.25H18a2.25 2.25 0 0 1 2.25 2.25V18A2.25 2.25 0 0 1 18 20.25h-2.25A2.25 2.25 0 0 1 13.5 18v-2.25Z"
        />
    </symbol>

    <symbol
        id="list"
        fill="none"
        viewBox="0 0 24 24"
        stroke-width="1.5"
        stroke="currentColor"
    >
        <path
            stroke-linecap="round"
            stroke-linejoin="round"
            d="M8.25 6.75h12M8.25 12h12m-12 5.25h12M3.75 6.75h.007v.008H3.75V6.75Zm.375 0a.375.375 0 1 1-.75 0 .375.375 0 0 1 .75 0ZM3.75 12h.007v.008H3.75V12Zm.375 0a.375.375 0 1 1-.75 0 .375.375 0 0 1 .75 0Zm-.375 5.25h.007v.008H3.75v-.008Zm.375 0a.375.375 0 1 1-.75 0 .375.375 0 0 1 .75 0Z"
        ></path>
    </symbol>
</svg>